<mxfile host="app.diagrams.net" modified="2023-05-03T13:43:28.397Z" agent="Mozilla/5.0 (Windows NT 10.0; Win64; x64) AppleWebKit/537.36 (KHTML, like Gecko) Chrome/112.0.0.0 Safari/537.36" etag="5xwDBMP1PP8CJrDnaPjd" version="21.2.3" type="device">
  <diagram name="Page-1" id="b-2SWCQ-DJqWMEEKV22X">
    <mxGraphModel dx="1235" dy="636" grid="1" gridSize="10" guides="1" tooltips="1" connect="1" arrows="1" fold="1" page="1" pageScale="1" pageWidth="850" pageHeight="1100" math="0" shadow="0">
      <root>
        <mxCell id="0" />
        <mxCell id="1" parent="0" />
        <mxCell id="Fvl1jaqskRdCDuDoKpiO-5" value="I2C" style="edgeStyle=orthogonalEdgeStyle;rounded=0;orthogonalLoop=1;jettySize=auto;html=1;startArrow=classic;startFill=1;endArrow=classic;endFill=1;strokeWidth=2;" parent="1" source="pktKvAscEAZRkxxUJ6Ln-1" target="Fvl1jaqskRdCDuDoKpiO-4" edge="1">
          <mxGeometry relative="1" as="geometry" />
        </mxCell>
        <mxCell id="pktKvAscEAZRkxxUJ6Ln-1" value="ATMega32U4" style="whiteSpace=wrap;html=1;aspect=fixed;fillColor=#bac8d3;strokeColor=#23445d;" parent="1" vertex="1">
          <mxGeometry x="360" y="280" width="80" height="80" as="geometry" />
        </mxCell>
        <mxCell id="pktKvAscEAZRkxxUJ6Ln-2" value="USB-C connector&lt;br&gt;(male)" style="rounded=0;whiteSpace=wrap;html=1;fillColor=#bac8d3;strokeColor=#23445d;" parent="1" vertex="1">
          <mxGeometry x="340" y="30" width="120" height="60" as="geometry" />
        </mxCell>
        <mxCell id="tEFot_9T8kyLQIwZ7p9q-2" style="edgeStyle=orthogonalEdgeStyle;rounded=0;orthogonalLoop=1;jettySize=auto;html=1;exitX=0.5;exitY=1;exitDx=0;exitDy=0;strokeWidth=2;entryX=0.5;entryY=0;entryDx=0;entryDy=0;" parent="1" source="pktKvAscEAZRkxxUJ6Ln-7" target="tEFot_9T8kyLQIwZ7p9q-1" edge="1">
          <mxGeometry relative="1" as="geometry">
            <mxPoint x="230" y="270" as="targetPoint" />
            <Array as="points">
              <mxPoint x="360" y="240" />
              <mxPoint x="230" y="240" />
            </Array>
          </mxGeometry>
        </mxCell>
        <mxCell id="pktKvAscEAZRkxxUJ6Ln-7" value="Polyfuse" style="rounded=0;whiteSpace=wrap;html=1;fillColor=#bac8d3;strokeColor=#23445d;" parent="1" vertex="1">
          <mxGeometry x="320" y="140" width="80" height="60" as="geometry" />
        </mxCell>
        <mxCell id="pktKvAscEAZRkxxUJ6Ln-11" value="+5V" style="endArrow=classic;html=1;rounded=0;strokeWidth=2;" parent="1" edge="1">
          <mxGeometry width="50" height="50" relative="1" as="geometry">
            <mxPoint x="360" y="90" as="sourcePoint" />
            <mxPoint x="360" y="140" as="targetPoint" />
          </mxGeometry>
        </mxCell>
        <mxCell id="pktKvAscEAZRkxxUJ6Ln-15" value="+5V" style="endArrow=classic;html=1;rounded=0;strokeWidth=2;entryX=0.25;entryY=0;entryDx=0;entryDy=0;" parent="1" target="pktKvAscEAZRkxxUJ6Ln-1" edge="1">
          <mxGeometry x="-0.3333" y="-40" width="50" height="50" relative="1" as="geometry">
            <mxPoint x="360" y="210" as="sourcePoint" />
            <mxPoint x="360" y="260" as="targetPoint" />
            <Array as="points">
              <mxPoint x="360" y="240" />
              <mxPoint x="380" y="240" />
            </Array>
            <mxPoint x="-40" y="-40" as="offset" />
          </mxGeometry>
        </mxCell>
        <mxCell id="pktKvAscEAZRkxxUJ6Ln-16" value="USB" style="endArrow=classic;html=1;rounded=0;startArrow=classic;startFill=1;strokeWidth=2;entryX=0.75;entryY=0;entryDx=0;entryDy=0;exitX=0.826;exitY=0.987;exitDx=0;exitDy=0;exitPerimeter=0;" parent="1" target="pktKvAscEAZRkxxUJ6Ln-1" edge="1" source="pktKvAscEAZRkxxUJ6Ln-2">
          <mxGeometry width="50" height="50" relative="1" as="geometry">
            <mxPoint x="439.43" y="100" as="sourcePoint" />
            <mxPoint x="470" y="240" as="targetPoint" />
            <Array as="points">
              <mxPoint x="440" y="240" />
              <mxPoint x="420" y="240" />
            </Array>
          </mxGeometry>
        </mxCell>
        <mxCell id="pktKvAscEAZRkxxUJ6Ln-17" value="Temp/Humidity/... sensor&lt;br&gt;(BME680)" style="rounded=0;whiteSpace=wrap;html=1;fillColor=#bac8d3;strokeColor=#23445d;" parent="1" vertex="1">
          <mxGeometry x="240" y="580" width="120" height="60" as="geometry" />
        </mxCell>
        <mxCell id="Fvl1jaqskRdCDuDoKpiO-3" value="CLK" style="edgeStyle=orthogonalEdgeStyle;rounded=0;orthogonalLoop=1;jettySize=auto;html=1;startArrow=none;startFill=0;endArrow=classic;endFill=1;strokeWidth=2;" parent="1" source="pktKvAscEAZRkxxUJ6Ln-22" target="pktKvAscEAZRkxxUJ6Ln-1" edge="1">
          <mxGeometry relative="1" as="geometry" />
        </mxCell>
        <mxCell id="pktKvAscEAZRkxxUJ6Ln-22" value="16MHz crystal&lt;br&gt;(LFXTAL071268)" style="rounded=0;whiteSpace=wrap;html=1;fillColor=#bac8d3;strokeColor=#23445d;" parent="1" vertex="1">
          <mxGeometry x="520" y="290" width="120" height="60" as="geometry" />
        </mxCell>
        <mxCell id="pktKvAscEAZRkxxUJ6Ln-27" value="Display&lt;br&gt;(EA W096016-XALW)" style="rounded=0;whiteSpace=wrap;html=1;fillColor=#bac8d3;strokeColor=#23445d;" parent="1" vertex="1">
          <mxGeometry x="440" y="580" width="120" height="60" as="geometry" />
        </mxCell>
        <mxCell id="Fvl1jaqskRdCDuDoKpiO-6" value="I2C" style="edgeStyle=orthogonalEdgeStyle;rounded=0;orthogonalLoop=1;jettySize=auto;html=1;exitX=0.25;exitY=1;exitDx=0;exitDy=0;entryX=0.5;entryY=0;entryDx=0;entryDy=0;startArrow=classic;startFill=1;endArrow=classic;endFill=1;strokeWidth=2;" parent="1" source="Fvl1jaqskRdCDuDoKpiO-4" target="pktKvAscEAZRkxxUJ6Ln-17" edge="1">
          <mxGeometry relative="1" as="geometry" />
        </mxCell>
        <mxCell id="Fvl1jaqskRdCDuDoKpiO-7" value="I2C" style="edgeStyle=orthogonalEdgeStyle;rounded=0;orthogonalLoop=1;jettySize=auto;html=1;exitX=0.75;exitY=1;exitDx=0;exitDy=0;entryX=0.5;entryY=0;entryDx=0;entryDy=0;startArrow=classic;startFill=1;endArrow=classic;endFill=1;strokeWidth=2;" parent="1" source="Fvl1jaqskRdCDuDoKpiO-4" target="pktKvAscEAZRkxxUJ6Ln-27" edge="1">
          <mxGeometry relative="1" as="geometry" />
        </mxCell>
        <mxCell id="Fvl1jaqskRdCDuDoKpiO-4" value="I2C level shifter&lt;br&gt;(5V - 3.3V)&lt;br&gt;(TCA9517A)" style="rounded=0;whiteSpace=wrap;html=1;fillColor=#bac8d3;strokeColor=#23445d;" parent="1" vertex="1">
          <mxGeometry x="340" y="440" width="120" height="60" as="geometry" />
        </mxCell>
        <mxCell id="tEFot_9T8kyLQIwZ7p9q-3" value="+3.3V" style="edgeStyle=orthogonalEdgeStyle;rounded=0;orthogonalLoop=1;jettySize=auto;html=1;entryX=0;entryY=0.5;entryDx=0;entryDy=0;strokeWidth=2;exitX=0.5;exitY=1;exitDx=0;exitDy=0;" parent="1" source="tEFot_9T8kyLQIwZ7p9q-1" target="Fvl1jaqskRdCDuDoKpiO-4" edge="1">
          <mxGeometry x="-0.1818" relative="1" as="geometry">
            <mxPoint x="220" y="380" as="sourcePoint" />
            <mxPoint as="offset" />
          </mxGeometry>
        </mxCell>
        <mxCell id="tEFot_9T8kyLQIwZ7p9q-1" value="5V to 3.3V converter&lt;br&gt;(LD1117S33TR)" style="rounded=0;whiteSpace=wrap;html=1;fillColor=#bac8d3;strokeColor=#23445d;" parent="1" vertex="1">
          <mxGeometry x="180" y="290" width="100" height="60" as="geometry" />
        </mxCell>
      </root>
    </mxGraphModel>
  </diagram>
</mxfile>
